<?xml version="1.0" standalone="no"?>
<!DOCTYPE svg PUBLIC "-//W3C//DTD SVG 20010904//EN"
 "http://www.w3.org/TR/2001/REC-SVG-20010904/DTD/svg10.dtd">
<svg version="1.0" xmlns="http://www.w3.org/2000/svg"
 width="848.000000pt" height="848.000000pt" viewBox="0 0 848.000000 848.000000"
 preserveAspectRatio="xMidYMid meet">
<metadata>
Created by potrace 1.14, written by Peter Selinger 2001-2017
</metadata>
<g transform="translate(0.000000,848.000000) scale(0.100000,-0.100000)"
fill="#000000" stroke="none">
<path d="M3990 8467 c-37 -18 -85 -74 -113 -131 -26 -55 -63 -195 -72 -273 -3
-26 -8 -59 -10 -73 -17 -99 -20 -309 -11 -810 5 -285 -2 -375 -41 -480 -35
-96 -104 -176 -183 -211 -36 -17 -291 -77 -436 -103 -40 -8 -74 -14 -109 -22
-16 -4 -46 -20 -67 -37 -32 -25 -47 -30 -105 -33 -90 -3 -112 -13 -178 -78
-80 -77 -132 -107 -179 -99 -27 4 -54 -1 -104 -22 -37 -16 -72 -32 -79 -37 -7
-6 -33 -11 -58 -14 -25 -2 -50 -6 -56 -9 -14 -9 -11 -31 6 -45 43 -35 -6 -78
-159 -139 -98 -39 -150 -76 -159 -112 -6 -21 -1 -26 34 -33 62 -11 82 -27 119
-93 13 -24 36 -49 52 -55 15 -7 28 -16 28 -19 0 -8 80 -43 98 -42 6 0 22 1 35
2 17 1 396 274 417 301 17 22 84 62 121 73 44 13 51 13 119 4 57 -7 171 34
229 83 52 44 58 54 64 105 7 61 49 110 102 120 25 5 50 -6 149 -65 268 -161
371 -268 384 -401 6 -68 -3 -107 -43 -173 -18 -31 -34 -60 -34 -64 -1 -15 -31
-42 -48 -44 -10 -1 -38 -2 -63 -2 -25 -1 -73 -12 -107 -24 -55 -22 -62 -27
-68 -58 -8 -48 -44 -68 -119 -69 -57 -1 -104 -14 -221 -63 -80 -33 -264 -130
-325 -170 -34 -23 -65 -42 -69 -42 -3 0 -17 -10 -31 -23 -14 -12 -36 -29 -50
-38 -14 -9 -59 -44 -100 -79 -223 -185 -397 -388 -557 -651 -66 -107 -158
-294 -153 -308 1 -2 -2 -7 -7 -10 -9 -7 -20 -35 -69 -176 -40 -115 -35 -97
-68 -240 -26 -112 -29 -131 -43 -265 -13 -134 -8 -462 12 -720 3 -36 7 -94 9
-130 5 -72 12 -126 32 -255 22 -139 107 -401 170 -528 38 -75 145 -251 163
-267 17 -15 71 -90 71 -99 0 -5 3 -11 8 -13 4 -2 27 -29 50 -61 24 -32 73 -87
109 -122 66 -64 79 -71 208 -111 33 -10 87 -34 120 -53 59 -34 163 -131 198
-184 10 -16 60 -55 110 -89 94 -62 406 -258 411 -258 2 0 47 -25 101 -55 53
-30 98 -55 100 -55 2 0 46 -20 98 -45 53 -25 99 -45 104 -45 4 0 21 -7 37 -15
31 -17 234 -85 269 -91 12 -2 42 -7 67 -11 88 -15 347 -9 470 12 14 2 43 7 65
10 45 7 70 13 70 15 0 1 9 3 19 5 174 33 372 113 334 136 -14 9 -18 122 -4
136 4 4 69 8 146 8 103 1 143 5 156 16 9 8 19 13 21 12 12 -9 23 1 23 21 0 14
10 30 24 39 24 16 33 16 89 2 28 -7 71 5 116 34 31 20 43 22 117 25 68 2 108
22 126 61 11 24 82 58 145 70 74 13 91 17 128 32 67 28 159 108 290 254 65 73
247 305 305 390 8 12 21 27 28 35 6 7 12 17 12 21 0 5 8 18 18 29 26 28 82
113 82 125 0 5 4 9 8 9 4 0 20 23 36 51 25 47 26 55 17 101 -6 27 -9 53 -6 58
3 5 29 16 58 26 129 42 146 61 152 174 5 97 10 120 59 310 99 385 197 766 202
790 3 14 7 32 9 40 2 8 4 15 5 15 1 0 4 34 6 75 5 68 -8 161 -26 185 -6 9 -24
68 -36 125 -15 64 -10 201 8 272 11 40 22 95 24 121 11 106 -33 275 -106 408
-22 39 -40 74 -40 76 0 2 -13 23 -29 46 -15 23 -30 47 -32 52 -2 6 -26 44 -53
85 -35 55 -59 80 -87 94 -62 30 -116 82 -144 139 -14 28 -40 71 -56 93 -34 45
-33 78 1 89 28 9 30 27 5 78 -13 27 -21 60 -19 77 3 28 -1 32 -54 57 -109 51
-157 106 -133 151 9 17 2 32 -43 95 -29 41 -61 88 -71 104 -9 15 -26 33 -38
39 -67 33 -125 70 -147 94 -50 55 -166 76 -205 37 -9 -9 -27 -17 -40 -17 -33
0 -91 53 -105 95 -6 19 -30 51 -53 70 -43 37 -50 38 -114 8 -44 -20 -74 -11
-123 38 -34 35 -40 47 -40 83 0 54 -25 88 -82 111 -97 39 -131 37 -173 -10
-30 -34 -36 -37 -74 -31 -48 6 -84 24 -130 65 -45 39 -80 56 -163 78 -38 10
-68 21 -68 25 0 5 -7 8 -15 8 -26 0 -185 78 -237 116 -27 20 -65 38 -86 41
-49 6 -130 -30 -143 -63 -3 -7 -32 -2 -88 15 -71 22 -87 31 -101 57 -29 50
-43 129 -28 150 7 10 -17 44 -45 61 -41 25 -79 112 -114 263 -11 46 -3 176 12
200 2 3 7 33 10 65 4 33 12 71 16 84 5 13 7 26 5 28 -3 3 0 17 5 31 5 14 12
37 14 51 5 31 13 66 15 66 1 0 3 9 5 20 26 162 26 408 1 530 -3 11 -5 26 -5
33 -1 6 -9 12 -19 12 -11 0 -27 9 -37 21 -25 26 -23 119 3 212 39 136 18 248
-53 281 -38 19 -70 19 -105 3z m574 -2453 c9 -8 14 -20 10 -25 -13 -21 10 -51
58 -75 57 -29 71 -32 148 -38 54 -4 127 -29 300 -99 98 -40 206 -71 220 -62 7
4 6 13 0 25 -21 39 36 37 117 -5 26 -14 57 -26 68 -28 44 -8 105 -28 117 -40
25 -22 58 -37 83 -37 35 0 92 -31 138 -75 22 -20 52 -41 69 -47 27 -10 29 -14
24 -43 -4 -21 -2 -36 7 -43 19 -16 65 -22 91 -12 17 6 27 4 39 -10 9 -11 34
-24 55 -30 31 -8 44 -18 57 -46 9 -19 27 -39 39 -44 12 -4 33 -22 47 -39 13
-17 29 -31 36 -31 6 0 14 -4 18 -9 8 -14 17 -87 20 -156 1 -33 3 -63 3 -67 6
-23 65 -74 139 -120 66 -40 89 -61 100 -87 15 -36 36 -61 51 -61 4 0 18 -10
30 -23 20 -21 20 -25 7 -50 -21 -40 -10 -55 50 -67 l53 -11 23 -61 c13 -35 38
-78 58 -98 66 -67 95 -105 154 -202 19 -30 24 -114 12 -189 -6 -35 -4 -49 8
-61 23 -23 3 -96 -29 -109 l-24 -9 21 -52 c15 -37 22 -76 23 -128 1 -74 1 -75
33 -89 26 -12 35 -24 53 -80 12 -37 22 -87 24 -111 2 -51 -11 -129 -26 -148
-8 -9 -1 -21 24 -45 33 -30 34 -34 24 -68 -6 -20 -17 -43 -24 -52 -8 -9 -17
-41 -21 -71 -7 -53 -14 -66 -70 -129 -31 -34 -35 -57 -12 -74 10 -7 29 -38 41
-69 l23 -56 -38 -73 c-25 -49 -35 -79 -30 -94 8 -27 -53 -151 -105 -211 -27
-31 -40 -57 -45 -88 -5 -35 -16 -54 -53 -89 -44 -43 -45 -46 -27 -59 10 -8 25
-14 32 -14 7 0 13 -5 13 -12 0 -6 7 -20 16 -30 22 -24 7 -42 -49 -58 -68 -19
-104 -83 -66 -119 21 -19 21 -21 5 -53 -24 -50 -41 -68 -63 -68 -10 0 -27 -6
-37 -13 -19 -14 -30 -63 -16 -72 4 -2 6 -26 3 -51 -2 -35 -15 -64 -48 -114
-37 -56 -52 -70 -92 -85 -42 -16 -229 -128 -243 -146 -3 -3 -26 -14 -52 -24
-61 -23 -76 -40 -59 -67 7 -11 11 -21 9 -22 -2 -1 -18 -13 -36 -25 -36 -25
-32 -42 10 -48 12 -2 26 -7 31 -12 15 -15 -33 -92 -92 -150 l-56 -54 -90 -1
c-88 -2 -92 -2 -139 -39 -27 -20 -61 -37 -75 -38 -56 -2 -88 4 -123 24 -33 18
-41 19 -63 7 -19 -10 -37 -11 -72 -4 -47 10 -49 9 -99 -33 -28 -23 -63 -45
-79 -49 -25 -6 -28 -5 -22 15 3 11 1 21 -5 21 -20 0 -94 -46 -149 -92 -62 -52
-97 -65 -180 -67 -34 -1 -40 -6 -77 -64 -42 -63 -74 -97 -92 -97 -21 0 -5 81
21 109 29 31 14 47 -59 63 -107 23 -282 15 -398 -18 -128 -37 -181 -41 -238
-19 -26 10 -51 25 -55 33 -7 12 -23 15 -67 12 -142 -7 -171 -6 -196 6 -32 17
-68 61 -68 85 0 10 -15 28 -32 40 -18 13 -35 26 -38 30 -3 3 -30 12 -60 19
-30 7 -76 21 -102 30 -33 12 -62 15 -98 10 -58 -7 -80 1 -61 23 19 24 -16 29
-79 12 -30 -8 -62 -17 -70 -19 -29 -7 -59 13 -80 54 -11 22 -24 40 -29 40 -4
0 -17 8 -29 18 -81 66 -126 90 -137 72 -3 -5 -17 -5 -33 -1 -20 5 -34 21 -54
61 -35 73 -76 104 -171 135 -122 40 -155 70 -162 146 -3 34 0 42 28 63 37 28
57 73 47 102 -8 22 -125 104 -147 104 -8 0 -22 -13 -31 -30 -9 -16 -23 -30
-29 -31 -16 -2 -21 -3 -56 -12 -56 -15 -91 40 -51 84 19 21 24 65 12 101 -10
28 -34 43 -43 28 -4 -6 -15 -10 -25 -10 -25 0 -56 56 -41 74 5 6 12 24 15 39
2 15 8 36 11 47 5 15 -3 28 -27 50 -18 17 -40 32 -48 35 -26 8 -52 64 -54 113
-1 26 9 83 21 127 37 126 31 202 -20 241 -62 50 -85 143 -64 267 2 15 -3 41
-13 60 l-18 32 30 26 c30 26 30 27 13 53 -10 14 -21 26 -26 26 -11 0 -12 50
-1 50 4 1 20 11 35 24 l29 23 -22 43 c-29 56 -21 90 30 136 22 20 40 45 40 55
0 33 -22 67 -47 74 -19 4 -24 11 -21 33 2 23 7 27 29 24 14 -2 31 3 37 10 11
13 53 153 58 193 1 11 3 20 4 20 3 0 10 42 16 92 3 37 1 59 -10 75 -10 16 -14
43 -11 92 3 62 8 75 49 135 50 74 68 112 71 156 1 17 3 32 4 35 0 3 23 22 49
43 27 20 62 48 78 62 16 14 34 29 40 34 20 16 53 22 71 13 10 -6 28 -6 40 -1
20 7 22 14 18 56 -9 91 3 103 165 163 195 72 244 100 267 152 12 26 25 39 44
43 24 6 41 28 44 57 1 24 17 27 175 33 158 6 211 12 280 32 33 9 97 16 160 17
129 1 151 -9 169 -81 7 -26 31 -85 53 -131 27 -58 38 -92 35 -110 -13 -66 -36
-131 -65 -176 l-31 -48 24 -26 c24 -26 24 -27 6 -45 -19 -19 -129 -53 -203
-62 -46 -6 -61 -13 -53 -24 11 -18 -25 -43 -104 -71 -47 -17 -90 -35 -98 -41
-18 -15 -17 -45 2 -53 21 -8 19 -32 -6 -57 -11 -11 -18 -28 -15 -37 4 -13 -16
-29 -88 -69 -51 -29 -98 -53 -104 -53 -7 0 -17 11 -23 24 -11 22 -59 43 -59
25 0 -4 -9 -10 -20 -14 -10 -3 -40 -26 -65 -50 -37 -36 -45 -51 -45 -80 0 -55
-21 -94 -89 -164 -34 -35 -59 -66 -57 -69 3 -2 -2 -18 -11 -36 -19 -37 -59
-193 -77 -302 -17 -107 -11 -273 13 -337 8 -23 7 -92 -3 -161 -4 -26 0 -48 11
-70 20 -38 23 -47 28 -113 2 -29 6 -57 10 -63 4 -6 31 -22 60 -35 63 -27 84
-58 62 -92 -8 -13 -42 -6 -75 15 -27 17 -32 14 -36 -25 -2 -15 -6 -36 -10 -45
-4 -9 -6 -27 -4 -40 2 -18 10 -23 33 -24 27 -1 89 -16 187 -46 63 -19 96 -83
91 -173 -4 -58 -2 -64 39 -124 47 -69 50 -73 69 -113 7 -16 15 -28 18 -28 18
0 75 45 89 70 22 39 60 39 135 2 42 -21 67 -28 97 -25 23 2 47 -1 54 -6 19
-16 14 -62 -9 -75 -30 -17 -47 -35 -49 -54 -5 -32 24 -96 62 -135 20 -21 48
-50 61 -63 28 -30 63 -45 111 -48 45 -3 80 9 80 29 0 22 61 31 233 34 37 1 53
6 71 26 12 13 38 27 57 30 19 3 45 7 59 10 14 2 43 7 64 10 21 3 89 14 150 25
61 11 127 22 146 25 59 8 103 16 165 31 33 8 71 17 84 20 13 3 31 9 40 13 9 5
20 9 24 9 17 0 125 48 172 76 36 22 60 30 85 28 117 -10 122 -9 134 25 11 30
54 73 74 73 6 0 12 3 14 8 2 4 28 19 59 34 52 25 119 86 119 108 0 5 16 16 35
25 37 15 65 37 65 52 0 38 23 82 48 92 33 14 74 97 87 176 5 28 9 55 11 61 1
7 -10 17 -24 23 -15 7 -21 16 -16 21 13 13 89 28 116 23 18 -3 35 6 69 39 92
88 107 147 54 209 -30 37 -23 57 23 65 58 9 65 12 95 38 16 14 37 23 48 21 32
-6 34 23 5 84 l-28 57 25 54 c14 30 50 81 80 114 60 63 81 99 91 158 l7 37
-71 33 c-38 18 -72 40 -75 48 -2 8 5 49 17 90 11 41 22 95 23 120 1 43 -24
147 -45 182 -5 10 -10 23 -10 29 0 6 -13 31 -30 55 -33 50 -40 78 -44 190 -3
93 -22 135 -76 172 -29 20 -41 41 -85 160 -29 75 -59 151 -68 169 -18 33 -37
51 -37 34 0 -5 -19 -2 -41 7 -33 13 -45 25 -60 60 -11 24 -19 50 -19 57 0 10
-15 12 -62 8 -105 -9 -135 -7 -176 11 -39 18 -62 49 -62 86 0 27 -17 34 -43
17 -15 -10 -29 -12 -45 -6 -13 5 -33 11 -45 13 -40 8 -53 16 -72 48 -18 31
-18 31 3 26 45 -12 30 72 -22 121 -48 46 -125 62 -216 48 -14 -2 -36 3 -50 12
-14 10 -34 17 -45 16 -48 -2 -122 -18 -147 -31 -46 -24 -88 11 -88 72 0 57
-97 120 -365 236 -87 38 -105 51 -138 93 -34 45 -37 54 -33 96 6 51 26 103 60
158 20 32 21 40 11 76 -14 48 -10 89 14 130 l17 30 92 -3 c97 -3 129 6 166 47
23 25 39 26 60 5z m-32 -1055 c9 0 34 -21 54 -46 82 -100 168 -168 183 -145
10 15 121 43 144 36 12 -3 29 -13 38 -20 9 -8 26 -16 38 -19 34 -6 41 -14 37
-45 -3 -26 1 -30 53 -49 31 -12 63 -27 71 -34 30 -24 68 -84 80 -125 11 -34
20 -44 52 -57 25 -10 52 -13 78 -9 25 4 45 2 55 -6 8 -7 26 -9 42 -6 24 6 34
0 63 -30 19 -19 56 -47 82 -60 26 -13 51 -31 55 -39 5 -8 19 -18 31 -20 12 -3
32 -7 44 -10 29 -6 37 -21 29 -59 -8 -39 -7 -58 1 -71 4 -6 -2 -30 -13 -54
-24 -54 -24 -60 2 -87 l21 -22 -31 -16 c-39 -21 -39 -31 -1 -51 18 -9 32 -26
36 -43 3 -15 9 -36 14 -47 9 -25 69 -236 76 -267 12 -63 17 -122 19 -218 1
-109 -6 -158 -27 -175 -23 -18 -57 -72 -64 -101 -4 -16 -26 -45 -48 -66 -46
-41 -42 -59 13 -60 30 -1 32 -3 25 -32 -12 -60 -46 -114 -83 -133 -45 -23
-101 -72 -101 -89 0 -17 21 -23 47 -13 28 10 31 5 31 -58 1 -49 -2 -55 -34
-79 -32 -25 -45 -26 -85 -10 -10 4 -27 -4 -47 -24 -29 -27 -32 -35 -31 -85 1
-31 -1 -58 -3 -61 -3 -2 -29 -6 -57 -8 -66 -4 -97 -29 -82 -68 8 -21 6 -29 -7
-41 -22 -18 -81 -48 -108 -53 -45 -9 -93 -35 -165 -91 -41 -31 -76 -61 -77
-65 -4 -10 -168 -118 -179 -118 -3 0 -14 -6 -22 -14 -57 -49 -321 -165 -411
-181 -19 -3 -48 -8 -65 -11 -74 -14 -135 -20 -161 -17 -34 4 -84 23 -85 32 -3
28 -11 47 -32 84 -46 77 -46 77 -127 83 -95 7 -100 8 -100 36 0 25 -25 45 -74
60 -32 9 -44 12 -133 28 -52 9 -127 49 -150 79 -25 33 30 47 87 24 81 -33 92
-22 33 34 -56 51 -100 68 -137 52 -34 -16 -132 25 -156 63 -22 36 -17 53 27
94 36 34 40 46 20 62 -9 8 -20 8 -38 -2 -68 -35 -99 -25 -79 25 13 31 13 33
-20 61 -19 15 -38 28 -43 28 -34 0 -63 75 -66 174 -2 58 -9 90 -24 120 -22 41
-26 100 -18 261 2 28 0 90 -5 138 -6 83 -6 89 16 112 13 14 27 25 32 25 5 0
22 10 38 21 26 20 30 20 44 6 9 -9 16 -20 16 -25 0 -5 11 -14 25 -20 20 -9 27
-8 37 5 30 38 94 97 183 168 74 58 107 93 142 148 25 40 49 76 53 80 4 5 25 0
46 -10 22 -11 46 -19 54 -18 40 3 47 -12 45 -87 -3 -69 -13 -157 -20 -168 -2
-3 -6 -22 -9 -43 -3 -21 -13 -52 -22 -69 -11 -21 -14 -41 -9 -67 4 -20 9 -57
10 -82 1 -26 9 -60 17 -77 13 -26 13 -34 1 -63 -16 -38 -8 -65 37 -134 14 -22
27 -53 29 -70 4 -39 23 -59 50 -50 11 3 21 10 21 15 0 22 33 40 63 34 81 -14
51 -54 -75 -103 -24 -9 -28 -16 -28 -49 0 -28 -7 -45 -25 -62 -19 -18 -22 -27
-14 -41 9 -18 76 -42 102 -38 19 4 72 -10 137 -37 60 -24 142 -36 170 -24 8 4
30 14 49 24 33 16 35 16 89 -10 30 -15 74 -28 98 -29 39 -1 66 -15 140 -70 8
-6 22 -4 41 5 47 25 64 43 93 100 35 68 57 89 104 97 27 4 40 2 49 -10 18 -23
77 -36 105 -24 21 10 22 15 17 60 -8 57 4 74 65 102 22 10 40 22 40 27 0 4 5
8 11 8 7 0 32 16 56 36 l43 36 -45 43 c-54 50 -53 52 24 172 l48 75 -28 92
c-37 116 -42 153 -24 180 8 12 17 41 19 64 4 43 3 45 -52 78 -7 4 -14 56 -17
134 l-3 85 -63 53 c-124 104 -260 185 -373 223 -63 22 -84 33 -163 92 -28 21
-64 40 -80 43 -66 12 -136 45 -130 63 1 3 -15 37 -36 74 -34 61 -42 100 -20
96 43 -7 57 39 68 217 3 40 5 77 6 81 5 28 -6 44 -40 64 -23 13 -37 27 -34 35
2 7 35 27 73 45 63 29 79 45 94 92 5 16 13 17 53 12 27 -3 56 -6 65 -6z m-67
-1032 c90 -44 133 -95 111 -131 -9 -13 -7 -19 7 -27 10 -6 33 -23 50 -38 18
-15 55 -36 82 -47 28 -10 56 -24 63 -31 8 -7 22 -18 32 -23 10 -5 29 -33 43
-60 24 -48 25 -54 11 -92 -18 -51 -18 -85 0 -136 13 -37 13 -49 -9 -134 -12
-52 -21 -107 -18 -123 14 -90 9 -106 -44 -126 -17 -6 -24 -16 -23 -32 4 -40 0
-46 -37 -72 -21 -14 -38 -31 -38 -38 -1 -16 -65 -13 -76 4 -10 17 -33 19 -72
8 -64 -19 -145 -12 -203 16 -30 15 -54 31 -54 36 0 5 -11 14 -25 19 -30 12
-48 51 -46 104 1 56 -23 90 -60 82 -32 -6 -45 7 -41 44 4 37 -15 80 -35 80
-29 1 -49 23 -48 51 3 42 10 45 90 42 70 -2 79 0 102 23 19 19 24 33 22 62 -2
35 -15 71 -28 82 -17 14 -39 48 -45 68 -6 18 -3 22 12 22 11 0 22 -6 25 -14 3
-9 15 -12 31 -9 21 4 26 11 26 37 0 17 -11 50 -24 72 -24 42 -21 69 6 69 10 0
12 19 10 72 -2 61 1 77 20 107 13 19 32 40 43 45 30 15 95 10 140 -12z"/>
<path d="M1525 5550 c-19 -36 -54 -58 -116 -71 -72 -16 -111 -67 -68 -90 12
-6 19 -20 18 -37 0 -29 10 -113 16 -122 8 -13 -14 -29 -105 -73 -100 -49 -160
-96 -160 -126 0 -9 -13 -38 -30 -64 -16 -26 -30 -52 -30 -56 0 -5 21 -27 46
-50 48 -42 116 -68 209 -80 50 -6 50 -6 98 43 47 49 56 66 36 66 -7 0 -6 8 4
23 13 19 23 22 88 22 70 0 77 2 127 39 39 28 52 44 50 59 -2 12 9 33 26 51 15
17 32 40 37 51 10 23 17 34 78 130 25 39 58 81 75 95 59 48 76 69 70 84 -9 23
-39 29 -81 16 -21 -6 -59 -13 -84 -16 -39 -5 -50 -1 -76 20 -17 15 -44 26 -59
26 -40 0 -56 13 -68 52 -10 29 -15 33 -49 34 -32 1 -40 -3 -52 -26z"/>
</g>
</svg>
