<?xml version="1.0" encoding="UTF-8"?>
<svg id="Layer_2" xmlns="http://www.w3.org/2000/svg" xmlns:xlink="http://www.w3.org/1999/xlink" viewBox="0 0 571.89 571.89">
  <defs>
    <style>
      .cls-1 {
        fill: url(#linear-gradient);
      }
    </style>
    <linearGradient id="linear-gradient" x1="0" y1="285.94" x2="571.89" y2="285.94" gradientTransform="translate(571.89 0) rotate(90)" gradientUnits="userSpaceOnUse">
      <stop offset=".26" stop-color="#c1b8ae"/>
      <stop offset="1" stop-color="#c1b8ae" stop-opacity="0"/>
    </linearGradient>
  </defs>
  <g id="svg4136">
    <path class="cls-1" d="M288.25,571.88c76.38-.61,147.94-30.93,201.51-85.38,53.02-53.88,82.13-125,82.13-200.5,0-.39,0-.77,0-1.16,0,0,0,0,0-.01,0-.4,0-.79,0-1.19,0-1.2-.03-2.4-.07-3.59-1.52-75.02-31.72-145.19-85.3-197.92C432.07,28.56,360.02-.6,283.65,0c-76.38.61-147.94,30.93-201.51,85.37C29.11,139.26,0,210.38,0,285.88c0,.4,0,.79,0,1.19H0c0,.39,0,.78,0,1.18,0,1.2.03,2.4.07,3.59,1.52,75.02,31.72,145.19,85.3,197.92,54.44,53.57,126.48,82.74,202.86,82.12ZM3.01,288.22c0-.39,0-.78,0-1.17,0-37.15,14.33-72.16,40.42-98.67,8.15-8.28,17.14-15.42,26.79-21.35.57,23.61,6.95,47.41,19.75,69.18,12.81,21.78,30.5,38.93,50.88,50.9-20.18,12.3-37.6,29.73-50.05,51.71-12.45,21.97-18.45,45.86-18.64,69.48-9.74-5.77-18.85-12.77-27.12-20.91-25.95-25.54-40.77-59.39-41.94-95.65-.02-1.17-.06-2.34-.07-3.52ZM142.51,42.05c32.4-19.06,70.28-24.35,106.67-14.92,11.21,2.91,21.85,7.11,31.79,12.47-20.57,12.56-37.73,30.2-49.94,51.74-12.22,21.56-18.53,45.35-18.73,69.46-20.72-11.3-44.5-17.65-69.72-17.44-25.21.2-48.87,6.93-69.4,18.55.56-47.69,25.32-93.97,69.34-119.86ZM528.47,383.5c-8.14,8.28-17.14,15.42-26.78,21.35-.57-23.62-6.95-47.41-19.76-69.17-12.54-21.33-29.96-38.68-50.7-50.9,20.54-12.56,37.68-30.18,49.88-51.71,12.45-21.97,18.45-45.86,18.64-69.48,9.74,5.77,18.84,12.77,27.12,20.91,26.79,26.36,41.71,61.58,42.02,99.17.31,37.62-14.05,73.04-40.41,99.83ZM429.38,529.84c-32.4,19.06-70.28,24.35-106.67,14.92-11.21-2.91-21.85-7.11-31.78-12.47,20.57-12.56,37.73-30.2,49.93-51.74,12.44-21.95,18.44-45.81,18.64-69.41,21.17,11.54,45.03,17.59,69.81,17.39,24.72-.2,48.44-6.6,69.39-18.44-.6,47.65-25.34,93.88-69.32,119.75ZM92.55,234.69c-12.84-21.83-19.1-45.75-19.38-69.42,20.87-12.13,44.63-18.7,69.43-18.9,24.69-.2,47.97,6.02,68.25,17.07-40.78,25.09-68.09,69.95-68.61,121.01-19.9-11.72-37.18-28.49-49.69-49.77ZM304.04,296.21c28.7,11.21,60.11,12.88,90.34,4.52,11.4-3.15,22.21-7.62,32.27-13.27-.54,49.98-27.28,93.88-67.19,118.43-1.18-42.09-20.81-82.81-55.43-109.69ZM356.46,405.94c-9.69-5.76-18.76-12.73-27-20.84-26.16-25.74-40.99-59.92-41.96-96.5,42.99,25.44,67.64,70.51,68.96,117.34ZM393.58,297.84c-35.37,9.78-72.4,5.54-104.57-11.92,31.89-17.97,68.84-22.81,104.36-13.6,11.23,2.91,21.9,7.12,31.85,12.5-9.86,5.54-20.46,9.92-31.64,13.01ZM217.54,200.52c8.36,30.23,25.94,56.32,50.3,75.18-40.86-15.89-85.89-11.8-122.61,8.83.36-36.64,14.64-71.1,40.4-97.29,8.12-8.25,17.09-15.38,26.7-21.3.32,11.55,2.04,23.15,5.2,34.58ZM215.34,165.99c40.29,23.91,67.72,67.37,69.05,117.31-31.51-18.63-54.17-48.21-63.96-83.58-3.08-11.15-4.77-22.46-5.09-33.73ZM282.88,285.97c-43.5,24.5-94.83,23.32-136.03,1.09,40.84-22.88,92.14-24.89,136.03-1.09ZM246.17,387.89c21.99-22.34,35.78-50.59,39.94-81.09,4.65,30.44,18.9,58.46,41.25,80.44,8.43,8.29,17.69,15.41,27.6,21.3-20.08,11.35-43.22,17.92-67.88,18.12-24.22.2-47.55-5.7-68.25-16.97,9.85-6.06,19.03-13.35,27.34-21.8ZM217.28,407.12c.13-11.31,1.64-22.68,4.55-33.91,9.21-35.53,31.4-65.47,62.6-84.6-.38,36.6-14.66,71.02-40.4,97.18-8.14,8.27-17.12,15.4-26.75,21.33ZM429.65,287.33c20.33,11.97,37.4,28.97,49.69,49.87,12.84,21.84,19.09,45.75,19.37,69.43-20.87,12.13-44.63,18.69-69.42,18.89-24.25.2-47.61-5.72-68.34-17.02,40.85-25.1,68.21-70.03,68.69-121.17ZM394.12,269.42c-30.36-7.87-61.74-5.7-90.26,5.97,34.18-27.43,53.15-68.46,53.66-110.56,40.31,23.91,67.75,67.38,69.08,117.33-10.15-5.48-21.03-9.78-32.48-12.75ZM287.46,283.26c.38-36.59,14.66-71.01,40.4-97.16,8.11-8.24,17.06-15.35,26.65-21.27-.57,46.84-24.48,92.31-67.05,118.43ZM325.72,183.99c-22,22.36-35.81,50.63-39.95,81.17-6.66-43.36-32.75-80.34-69.02-101.82,20.54-11.63,43.81-17.92,68.06-18.12,24.66-.2,47.9,6,68.17,17.02-9.81,6.04-18.97,13.32-27.26,21.74ZM268.01,296.48c-24.06,19.25-41.21,45.62-49.09,75.98-2.98,11.48-4.5,23.1-4.64,34.66-9.71-5.77-18.79-12.74-27.05-20.87-26.19-25.77-41.02-60-41.96-96.63,37.05,20.04,82.14,23.41,122.73,6.86ZM287.1,429.66c25.21-.2,48.87-6.93,69.4-18.55-.2,23.1-6.07,46.46-18.25,67.94-12.24,21.6-29.56,39.2-50.34,51.54-20.98-12.01-38.58-29.33-51.17-50.73-12.28-20.88-18.83-44.03-19.43-67.59,21.16,11.54,45.02,17.57,69.78,17.38ZM478.49,231.59c-11.95,21.09-28.75,38.36-48.88,50.66-1.3-51.13-29.39-95.61-70.64-120.04,20.54-11.63,43.8-17.92,68.06-18.12,24.83-.2,48.72,6,69.81,17.83.09,24.18-6.11,48.07-18.35,69.68ZM427.01,141.08c-24.78.2-48.54,6.63-69.52,18.51-.58-23.59-6.97-47.36-19.75-69.1-12.55-21.35-29.99-38.71-50.76-50.93,9.84-5.52,20.42-9.89,31.58-12.98,36.23-10.02,74.19-5.33,106.89,13.2,32.7,18.53,56.23,48.69,66.25,84.92,3.09,11.16,4.77,22.48,5.09,33.76-21.16-11.53-45.01-17.57-69.78-17.37ZM335.15,92.01c12.52,21.29,18.77,44.55,19.34,67.64-20.71-11.29-44.48-17.63-69.69-17.43-25.25.2-48.95,6.95-69.5,18.6.2-23.6,6.38-46.89,18.34-68,12.24-21.6,29.56-39.2,50.35-51.54,20.98,12.01,38.58,29.33,51.17,50.73ZM75.13,409.44c0-23.49,5.88-47.29,18.26-69.14,12.17-21.47,29.18-38.52,48.89-50.56.97,37.39,16.12,72.33,42.86,98.64,8.45,8.32,17.75,15.46,27.69,21.35-20.52,11.6-43.75,17.87-67.97,18.07-24.79.2-48.66-5.98-69.72-17.78,0-.2,0-.39,0-.59ZM144.88,430.81c24.74-.2,48.48-6.61,69.44-18.46.6,24.07,7.3,47.73,19.84,69.05,12.55,21.35,29.99,38.71,50.76,50.93-9.84,5.52-20.42,9.89-31.58,12.98-36.23,10.02-74.19,5.33-106.89-13.2-44.4-25.16-69.89-70.99-71.25-118.63,21.14,11.5,44.96,17.52,69.69,17.32ZM183.15,549.7c23.15,5.44,47.43,5.02,70.99-1.49,11.98-3.31,23.31-8.08,33.8-14.14,10.59,5.89,21.99,10.48,34.02,13.6,23.66,6.14,47.94,6.16,71,.35-32.83,13.4-68.23,20.58-104.75,20.87-36.52.29-72.04-6.31-105.07-19.18ZM487.62,484.4c-7.77,7.89-15.92,15.25-24.41,22.1,25-26.86,38.51-62.18,38.52-98.18,10.43-6.23,20.13-13.83,28.88-22.72,16.98-17.26,29.08-38.04,35.62-60.66-8.22,59.99-35.37,115.52-78.61,159.46ZM484.4,84.27c43.95,43.25,72.01,98.36,81.18,158.23-6.9-22.54-19.34-43.14-36.61-60.14-8.89-8.75-18.71-16.19-29.24-22.25-.59-35.99-14.67-71.09-40.1-97.55,8.6,6.71,16.88,13.95,24.77,21.71ZM388.74,22.19c-23.15-5.44-47.43-5.02-70.99,1.5-11.98,3.31-23.31,8.08-33.8,14.14-10.59-5.89-21.99-10.48-34.02-13.6-23.66-6.14-47.94-6.16-71-.35C211.75,10.48,247.15,3.3,283.67,3.01c36.52-.29,72.03,6.31,105.07,19.18ZM84.27,87.49c7.78-7.9,15.95-15.28,24.45-22.14-25.03,26.87-38.57,62.22-38.57,98.24,0,.03,0,.05,0,.08-30.93,18.51-54.34,48.3-64.53,83.6,8.17-60.11,35.34-115.77,78.65-159.79ZM6.31,329.39c6.9,22.54,19.34,43.14,36.61,60.14,8.89,8.75,18.72,16.19,29.25,22.26.59,36.01,14.68,71.12,40.13,97.58-8.62-6.72-16.91-13.97-24.81-21.75C43.54,444.37,15.48,389.26,6.31,329.39Z"/>
  </g>
</svg>