<?xml version="1.0" encoding="UTF-8"?>
<svg xmlns="http://www.w3.org/2000/svg" version="1.1" viewBox="0 0 848 848">
  <defs>
    <style>
      .cls-1 {
        fill: #333;
      }
    </style>
  </defs>
  <!-- Generator: Adobe Illustrator 28.7.1, SVG Export Plug-In . SVG Version: 1.2.0 Build 142)  -->
  <g>
    <g id="Layer_1">
      <g>
        <path class="cls-1" d="M399,1.3c-3.7,1.8-8.5,7.4-11.3,13.1-2.6,5.5-6.3,19.5-7.2,27.3s-.8,5.9-1,7.3c-1.7,9.9-2,30.9-1.1,81,.5,28.5-.2,37.5-4.1,48-3.5,9.6-10.4,17.6-18.3,21.1-3.6,1.7-29.1,7.7-43.6,10.3-4,.8-7.4,1.4-10.9,2.2-1.6.4-4.6,2-6.7,3.7-3.2,2.5-4.7,3-10.5,3.3-9,.3-11.2,1.3-17.8,7.8-8,7.7-13.2,10.7-17.9,9.9-2.7-.4-5.4.1-10.4,2.2-3.7,1.6-7.2,3.2-7.9,3.7-.7.6-3.3,1.1-5.8,1.4-2.5.2-5,.6-5.6.9-1.4.9-1.1,3.1.6,4.5,4.3,3.5-.6,7.8-15.9,13.9-9.8,3.9-15,7.6-15.9,11.2-.6,2.1-.1,2.6,3.4,3.3,6.2,1.1,8.2,2.7,11.9,9.3,1.3,2.4,3.6,4.9,5.2,5.5,1.5.7,2.8,1.6,2.8,1.9,0,.8,8,4.3,9.8,4.2.6,0,2.2-.1,3.5-.2,1.7-.1,39.6-27.4,41.7-30.1,1.7-2.2,8.4-6.2,12.1-7.3,4.4-1.3,5.1-1.3,11.9-.4,5.7.7,17.1-3.4,22.9-8.3,5.2-4.4,5.8-5.4,6.4-10.5.7-6.1,4.9-11,10.2-12,2.5-.5,5,.6,14.9,6.5,26.8,16.1,37.1,26.8,38.4,40.1.6,6.8-.3,10.7-4.3,17.3-1.8,3.1-3.4,6-3.4,6.4-.1,1.5-3.1,4.2-4.8,4.4-1,.1-3.8.2-6.3.2-2.5.1-7.3,1.2-10.7,2.4-5.5,2.2-6.2,2.7-6.8,5.8-.8,4.8-4.4,6.8-11.9,6.9-5.7.1-10.4,1.4-22.1,6.3-8,3.3-26.4,13-32.5,17-3.4,2.3-6.5,4.2-6.9,4.2s-1.7,1-3.1,2.3c-1.4,1.2-3.6,2.9-5,3.8s-5.9,4.4-10,7.9c-22.3,18.5-39.7,38.8-55.7,65.1-6.6,10.7-15.8,29.4-15.3,30.8.1.2-.2.7-.7,1-.9.7-2,3.5-6.9,17.6-4,11.5-3.5,9.7-6.8,24-2.6,11.2-2.9,13.1-4.3,26.5-1.3,13.4-.8,46.2,1.2,72,.3,3.6.7,9.4.9,13,.5,7.2,1.2,12.6,3.2,25.5,2.2,13.9,10.7,40.1,17,52.8,3.8,7.5,14.5,25.1,16.3,26.7,1.7,1.5,7.1,9,7.1,9.9s.3,1.1.8,1.3c.4.2,2.7,2.9,5,6.1,2.4,3.2,7.3,8.7,10.9,12.2,6.6,6.4,7.9,7.1,20.8,11.1,3.3,1,8.7,3.4,12,5.3,5.9,3.4,16.3,13.1,19.8,18.4,1,1.6,6,5.5,11,8.9,9.4,6.2,40.6,25.8,41.1,25.8s4.7,2.5,10.1,5.5c5.3,3,9.8,5.5,10,5.5s4.6,2,9.8,4.5c5.3,2.5,9.9,4.5,10.4,4.5s2.1.7,3.7,1.5c3.1,1.7,23.4,8.5,26.9,9.1,1.2.2,4.2.7,6.7,1.1,8.8,1.5,34.7.9,47-1.2,1.4-.2,4.3-.7,6.5-1,4.5-.7,7-1.3,7-1.5s.9-.3,1.9-.5c17.4-3.3,37.2-11.3,33.4-13.6-1.4-.9-1.8-12.2-.4-13.6s6.9-.8,14.6-.8c10.3-.1,14.3-.5,15.6-1.6.9-.8,1.9-1.3,2.1-1.2,1.2.9,2.3-.1,2.3-2.1s1-3,2.4-3.9c2.4-1.6,3.3-1.6,8.9-.2s7.1-.5,11.6-3.4c3.1-2,4.3-2.2,11.7-2.5,6.8-.2,10.8-2.2,12.6-6.1,1.1-2.4,8.2-5.8,14.5-7,7.4-1.3,9.1-1.7,12.8-3.2,6.7-2.8,15.9-10.8,29-25.4,6.5-7.3,24.7-30.5,30.5-39,.8-1.2,2.1-2.7,2.8-3.5.6-.7,1.2-1.7,1.2-2.1s.8-1.8,1.8-2.9c2.6-2.8,8.2-11.3,8.2-12.5s.4-.9.8-.9,2-2.3,3.6-5.1c2.5-4.7,2.6-5.5,1.7-10.1-.6-2.7-.9-5.3-.6-5.8s2.9-1.6,5.8-2.6c12.9-4.2,14.6-6.1,15.2-17.4.5-9.7,1-12,5.9-31,9.9-38.5,19.7-76.6,20.2-79,.3-1.4.7-3.2.9-4s.4-1.5.5-1.5.4-3.4.6-7.5c.5-6.8-.8-16.1-2.6-18.5-.6-.9-2.4-6.8-3.6-12.5-1.5-6.4-1-20.1.8-27.2,1.1-4,2.2-9.5,2.4-12.1,1.1-10.6-3.3-27.5-10.6-40.8-2.2-3.9-4-7.4-4-7.6s-1.3-2.3-2.9-4.6c-1.5-2.3-3-4.7-3.2-5.2-.2-.6-2.6-4.4-5.3-8.5-3.5-5.5-5.9-8-8.7-9.4-6.2-3-11.6-8.2-14.4-13.9-1.4-2.8-4-7.1-5.6-9.3-3.4-4.5-3.3-7.8.1-8.9,2.8-.9,3-2.7.5-7.8-1.3-2.7-2.1-6-1.9-7.7.3-2.8-.1-3.2-5.4-5.7-10.9-5.1-15.7-10.6-13.3-15.1.9-1.7.2-3.2-4.3-9.5-2.9-4.1-6.1-8.8-7.1-10.4-.9-1.5-2.6-3.3-3.8-3.9-6.7-3.3-12.5-7-14.7-9.4-5-5.5-16.6-7.6-20.5-3.7s-2.7,1.7-4,1.7c-3.3,0-9.1-5.3-10.5-9.5-.6-1.9-3-5.1-5.3-7-4.3-3.7-5-3.8-11.4-.8-4.4,2-7.4,1.1-12.3-3.8-3.4-3.5-4-4.7-4-8.3,0-5.4-2.5-8.8-8.2-11.1-9.7-3.9-13.1-3.7-17.3,1-3,3.4-3.6,3.7-7.4,3.1-4.8-.6-8.4-2.4-13-6.5-4.5-3.9-8-5.6-16.3-7.8-3.8-1-6.8-2.1-6.8-2.5s-.7-.8-1.5-.8c-2.6,0-18.5-7.8-23.7-11.6-2.7-2-6.5-3.8-8.6-4.1-4.9-.6-13,3-14.3,6.3-.3.7-3.2.2-8.8-1.5-7.1-2.2-8.7-3.1-10.1-5.7-2.9-5-4.3-12.9-2.8-15,.7-1-1.7-4.4-4.5-6.1-4.1-2.5-7.9-11.2-11.4-26.3-1.1-4.6-.3-17.6,1.2-20,.2-.3.7-3.3,1-6.5.4-3.3,1.2-7.1,1.6-8.4.5-1.3.7-2.6.5-2.8-.3-.3,0-1.7.5-3.1s1.2-3.7,1.4-5.1c.5-3.1,1.3-6.6,1.5-6.6s.3-.9.5-2c2.6-16.2,2.6-40.8.1-53-.3-1.1-.5-2.6-.5-3.3-.1-.6-.9-1.2-1.9-1.2s-2.7-.9-3.7-2.1c-2.5-2.6-2.3-11.9.3-21.2,3.9-13.6,1.8-24.8-5.3-28.1-3.8-1.9-7-1.9-10.5-.3ZM456.4,246.6c.9.8,1.4,2,1,2.5-1.3,2.1,1,5.1,5.8,7.5,5.7,2.9,7.1,3.2,14.8,3.8,5.4.4,12.7,2.9,30,9.9,9.8,4,20.6,7.1,22,6.2.7-.4.6-1.3,0-2.5-2.1-3.9,3.6-3.7,11.7.5,2.6,1.4,5.7,2.6,6.8,2.8,4.4.8,10.5,2.8,11.7,4,2.5,2.2,5.8,3.7,8.3,3.7s9.2,3.1,13.8,7.5c2.2,2,5.2,4.1,6.9,4.7,2.7,1,2.9,1.4,2.4,4.3-.4,2.1-.2,3.6.7,4.3,1.9,1.6,6.5,2.2,9.1,1.2,1.7-.6,2.7-.4,3.9,1,.9,1.1,3.4,2.4,5.5,3,3.1.8,4.4,1.8,5.7,4.6.9,1.9,2.7,3.9,3.9,4.4,1.2.4,3.3,2.2,4.7,3.9,1.3,1.7,2.9,3.1,3.6,3.1s1.4.4,1.8.9c.8,1.4,1.7,8.7,2,15.6.1,3.3.3,6.3.3,6.7.6,2.3,6.5,7.4,13.9,12,6.6,4,8.9,6.1,10,8.7,1.5,3.6,3.6,6.1,5.1,6.1s1.8,1,3,2.3c2,2.1,2,2.5.7,5-2.1,4-1,5.5,5,6.7l5.3,1.1,2.3,6.1c1.3,3.5,3.8,7.8,5.8,9.8,6.6,6.7,9.5,10.5,15.4,20.2,1.9,3,2.4,11.4,1.2,18.9-.6,3.5-.4,4.9.8,6.1,2.3,2.3.3,9.6-2.9,10.9l-2.4.9,2.1,5.2c1.5,3.7,2.2,7.6,2.3,12.8.1,7.4.1,7.5,3.3,8.9,2.6,1.2,3.5,2.4,5.3,8,1.2,3.7,2.2,8.7,2.4,11.1.2,5.1-1.1,12.9-2.6,14.8-.8.9-.1,2.1,2.4,4.5,3.3,3,3.4,3.4,2.4,6.8-.6,2-1.7,4.3-2.4,5.2-.8.9-1.7,4.1-2.1,7.1-.7,5.3-1.4,6.6-7,12.9-3.1,3.4-3.5,5.7-1.2,7.4,1,.7,2.9,3.8,4.1,6.9l2.3,5.6-3.8,7.3c-2.5,4.9-3.5,7.9-3,9.4.8,2.7-5.3,15.1-10.5,21.1-2.7,3.1-4,5.7-4.5,8.8-.5,3.5-1.6,5.4-5.3,8.9-4.4,4.3-4.5,4.6-2.7,5.9,1,.8,2.5,1.4,3.2,1.4s1.3.5,1.3,1.2.7,2,1.6,3c2.2,2.4.7,4.2-4.9,5.8-6.8,1.9-10.4,8.3-6.6,11.9,2.1,1.9,2.1,2.1.5,5.3-2.4,5-4.1,6.8-6.3,6.8s-2.7.6-3.7,1.3c-1.9,1.4-3,6.3-1.6,7.2.4.2.6,2.6.3,5.1-.2,3.5-1.5,6.4-4.8,11.4-3.7,5.6-5.2,7-9.2,8.5-4.2,1.6-22.9,12.8-24.3,14.6-.3.3-2.6,1.4-5.2,2.4-6.1,2.3-7.6,4-5.9,6.7.7,1.1,1.1,2.1.9,2.2s-1.8,1.3-3.6,2.5c-3.6,2.5-3.2,4.2,1,4.8,1.2.2,2.6.7,3.1,1.2,1.5,1.5-3.3,9.2-9.2,15l-5.6,5.4h-9c-8.8.3-9.2.3-13.9,4-2.7,2-6.1,3.7-7.5,3.8-5.6.2-8.8-.4-12.3-2.4-3.3-1.8-4.1-1.9-6.3-.7-1.9,1-3.7,1.1-7.2.4-4.7-1-4.9-.9-9.9,3.3-2.8,2.3-6.3,4.5-7.9,4.9-2.5.6-2.8.5-2.2-1.5.3-1.1.1-2.1-.5-2.1-2,0-9.4,4.6-14.9,9.2-6.2,5.2-9.7,6.5-18,6.7-3.4.1-4,.6-7.7,6.4-4.2,6.3-7.4,9.7-9.2,9.7s-.5-8.1,2.1-10.9c2.9-3.1,1.4-4.7-5.9-6.3-10.7-2.3-28.2-1.5-39.8,1.8-12.8,3.7-18.1,4.1-23.8,1.9-2.6-1-5.1-2.5-5.5-3.3-.7-1.2-2.3-1.5-6.7-1.2-14.2.7-17.1.6-19.6-.6-3.2-1.7-6.8-6.1-6.8-8.5s-1.5-2.8-3.2-4c-1.8-1.3-3.5-2.6-3.8-3-.3-.3-3-1.2-6-1.9s-7.6-2.1-10.2-3c-3.3-1.2-6.2-1.5-9.8-1-5.8.7-8-.1-6.1-2.3,1.9-2.4-1.6-2.9-7.9-1.2-3,.8-6.2,1.7-7,1.9-2.9.7-5.9-1.3-8-5.4-1.1-2.2-2.4-4-2.9-4s-1.7-.8-2.9-1.8c-8.1-6.6-12.6-9-13.7-7.2-.3.5-1.7.5-3.3.1s-3.4-2.1-5.4-6.1c-3.5-7.3-7.6-10.4-17.1-13.5-12.2-4-15.5-7-16.2-14.6-.3-3.4,0-4.2,2.8-6.3,3.7-2.8,5.7-7.3,4.7-10.2-.8-2.2-12.5-10.4-14.7-10.4s-2.2,1.3-3.1,3c-.9,1.6-2.3,3-2.9,3.1-1.6.2-2.1.3-5.6,1.2-5.6,1.5-9.1-4-5.1-8.4,1.9-2.1,2.4-6.5,1.2-10.1-1-2.8-3.4-4.3-4.3-2.8-.4.6-1.5,1-2.5,1-2.5,0-5.6-5.6-4.1-7.4s1.2-2.4,1.5-3.9c.2-1.5.8-3.6,1.1-4.7.5-1.5-.3-2.8-2.7-5-1.8-1.7-4-3.2-4.8-3.5-2.6-.8-5.2-6.4-5.4-11.3-.1-2.6.9-8.3,2.1-12.7,3.7-12.6,3.1-20.2-2-24.1-6.2-5-8.5-14.3-6.4-26.7.2-1.5-.3-4.1-1.3-6l-1.8-3.2,3-2.6c3-2.6,3-2.7,1.3-5.3-1-1.4-2.1-2.6-2.6-2.6-1.1,0-1.2-5-.1-5,.4-.1,2-1.1,3.5-2.4l2.9-2.3-2.2-4.3c-2.9-5.6-2.1-9,3-13.6,2.2-2,4-4.5,4-5.5,0-3.3-2.2-6.7-4.7-7.4-1.9-.4-2.4-1.1-2.1-3.3.2-2.3.7-2.7,2.9-2.4,1.4.2,3.1-.3,3.7-1,1.1-1.3,5.3-15.3,5.8-19.3.1-1.1.3-2,.4-2,.3,0,1-4.2,1.6-9.2.3-3.7.1-5.9-1-7.5-1-1.6-1.4-4.3-1.1-9.2.3-6.2.8-7.5,4.9-13.5,5-7.4,6.8-11.2,7.1-15.6.1-1.7.3-3.2.4-3.5,0-.3,2.3-2.2,4.9-4.3,2.7-2,6.2-4.8,7.8-6.2s3.4-2.9,4-3.4c2-1.6,5.3-2.2,7.1-1.3,1,.6,2.8.6,4,.1,2-.7,2.2-1.4,1.8-5.6-.9-9.1.3-10.3,16.5-16.3,19.5-7.2,24.4-10,26.7-15.2,1.2-2.6,2.5-3.9,4.4-4.3,2.4-.6,4.1-2.8,4.4-5.7.1-2.4,1.7-2.7,17.5-3.3s21.1-1.2,28-3.2c3.3-.9,9.7-1.6,16-1.7,12.9-.1,15.1.9,16.9,8.1.7,2.6,3.1,8.5,5.3,13.1,2.7,5.8,3.8,9.2,3.5,11-1.3,6.6-3.6,13.1-6.5,17.6l-3.1,4.8,2.4,2.6c2.4,2.6,2.4,2.7.6,4.5s-12.9,5.3-20.3,6.2c-4.6.6-6.1,1.3-5.3,2.4,1.1,1.8-2.5,4.3-10.4,7.1-4.7,1.7-9,3.5-9.8,4.1-1.8,1.5-1.7,4.5.2,5.3,2.1.8,1.9,3.2-.6,5.7s-1.8,2.8-1.5,3.7c.4,1.3-1.6,2.9-8.8,6.9-5.1,2.9-9.8,5.3-10.4,5.3s-1.7-1.1-2.3-2.4c-1.1-2.2-5.9-4.3-5.9-2.5s-.9,1-2,1.4c-1,.3-4,2.6-6.5,5-3.7,3.6-4.5,5.1-4.5,8,0,5.5-2.1,9.4-8.9,16.4s-5.9,6.6-5.7,6.9c.3.2-.2,1.8-1.1,3.6-1.9,3.7-5.9,19.3-7.7,30.2-1.7,10.7-1.1,27.3,1.3,33.7.8,2.3.7,9.2-.3,16.1-.4,2.6,0,4.8,1.1,7,2,3.8,2.3,4.7,2.8,11.3.2,2.9.6,5.7,1,6.3s3.1,2.2,6,3.5c6.3,2.7,8.4,5.8,6.2,9.2-.8,1.3-4.2.6-7.5-1.5-2.7-1.7-3.2-1.4-3.6,2.5-.2,1.5-.6,3.6-1,4.5s-.6,2.7-.4,4c.2,1.8,1,2.3,3.3,2.4,2.7.1,8.9,1.6,18.7,4.6,6.3,1.9,9.6,8.3,9.1,17.3-.4,5.8-.2,6.4,3.9,12.4,4.7,6.9,5,7.3,6.9,11.3.7,1.6,1.5,2.8,1.8,2.8,1.8,0,7.5-4.5,8.9-7,2.2-3.9,6-3.9,13.5-.2,4.2,2.1,6.7,2.8,9.7,2.5,2.3-.2,4.7.1,5.4.6,1.9,1.6,1.4,6.2-.9,7.5-3,1.7-4.7,3.5-4.9,5.4-.5,3.2,2.4,9.6,6.2,13.5,2,2.1,4.8,5,6.1,6.3,2.8,3,6.3,4.5,11.1,4.8,4.5.3,8-.9,8-2.9s6.1-3.1,23.3-3.4c3.7-.1,5.3-.6,7.1-2.6,1.2-1.3,3.8-2.7,5.7-3s4.5-.7,5.9-1c1.4-.2,4.3-.7,6.4-1s8.9-1.4,15-2.5,12.7-2.2,14.6-2.5c5.9-.8,10.3-1.6,16.5-3.1,3.3-.8,7.1-1.7,8.4-2s3.1-.9,4-1.3c.9-.5,2-.9,2.4-.9,1.7,0,12.5-4.8,17.2-7.6,3.6-2.2,6-3,8.5-2.8,11.7,1,12.2.9,13.4-2.5,1.1-3,5.4-7.3,7.4-7.3s1.2-.3,1.4-.8c.2-.4,2.8-1.9,5.9-3.4,5.2-2.5,11.9-8.6,11.9-10.8s1.6-1.6,3.5-2.5c3.7-1.5,6.5-3.7,6.5-5.2,0-3.8,2.3-8.2,4.8-9.2,3.3-1.4,7.4-9.7,8.7-17.6.5-2.8.9-5.5,1.1-6.1.1-.7-1-1.7-2.4-2.3-1.5-.7-2.1-1.6-1.6-2.1,1.3-1.3,8.9-2.8,11.6-2.3,1.8.3,3.5-.6,6.9-3.9,9.2-8.8,10.7-14.7,5.4-20.9-3-3.7-2.3-5.7,2.3-6.5,5.8-.9,6.5-1.2,9.5-3.8,1.6-1.4,3.7-2.3,4.8-2.1,3.2.6,3.4-2.3.5-8.4l-2.8-5.7,2.5-5.4c1.4-3,5-8.1,8-11.4,6-6.3,8.1-9.9,9.1-15.8l.7-3.7-7.1-3.3c-3.8-1.8-7.2-4-7.5-4.8-.2-.8.5-4.9,1.7-9,1.1-4.1,2.2-9.5,2.3-12,.1-4.3-2.4-14.7-4.5-18.2-.5-1-1-2.3-1-2.9s-1.3-3.1-3-5.5c-3.3-5-4-7.8-4.4-19-.3-9.3-2.2-13.5-7.6-17.2-2.9-2-4.1-4.1-8.5-16-2.9-7.5-5.9-15.1-6.8-16.9-1.8-3.3-3.7-5.1-3.7-3.4s-1.9.2-4.1-.7c-3.3-1.3-4.5-2.5-6-6-1.1-2.4-1.9-5-1.9-5.7,0-1-1.5-1.2-6.2-.8-10.5.9-13.5.7-17.6-1.1-3.9-1.8-6.2-4.9-6.2-8.6s-1.7-3.4-4.3-1.7c-1.5,1-2.9,1.2-4.5.6-1.3-.5-3.3-1.1-4.5-1.3-4-.8-5.3-1.6-7.2-4.8q-1.8-3.1.3-2.6c4.5,1.2,3-7.2-2.2-12.1-4.8-4.6-12.5-6.2-21.6-4.8-1.4.2-3.6-.3-5-1.2-1.4-1-3.4-1.7-4.5-1.6-4.8.2-12.2,1.8-14.7,3.1-4.6,2.4-8.8-1.1-8.8-7.2s-9.7-12-36.5-23.6c-8.7-3.8-10.5-5.1-13.8-9.3-3.4-4.5-3.7-5.4-3.3-9.6.6-5.1,2.6-10.3,6-15.8,2-3.2,2.1-4,1.1-7.6-1.4-4.8-1-8.9,1.4-13l1.7-3,9.2.3c9.7.3,12.9-.6,16.6-4.7,2.3-2.5,3.9-2.6,6-.5ZM453.2,352.1c.9,0,3.4,2.1,5.4,4.6,8.2,10,16.8,16.8,18.3,14.5,1-1.5,12.1-4.3,14.4-3.6,1.2.3,2.9,1.3,3.8,2,.9.8,2.6,1.6,3.8,1.9,3.4.6,4.1,1.4,3.7,4.5-.3,2.6.1,3,5.3,4.9,3.1,1.2,6.3,2.7,7.1,3.4,3,2.4,6.8,8.4,8,12.5,1.1,3.4,2,4.4,5.2,5.7,2.5,1,5.2,1.3,7.8.9,2.5-.4,4.5-.2,5.5.6.8.7,2.6.9,4.2.6,2.4-.6,3.4,0,6.3,3,1.9,1.9,5.6,4.7,8.2,6s5.1,3.1,5.5,3.9c.5.8,1.9,1.8,3.1,2,1.2.3,3.2.7,4.4,1,2.9.6,3.7,2.1,2.9,5.9-.8,3.9-.7,5.8.1,7.1.4.6-.2,3-1.3,5.4-2.4,5.4-2.4,6,.2,8.7l2.1,2.2-3.1,1.6c-3.9,2.1-3.9,3.1-.1,5.1,1.8.9,3.2,2.6,3.6,4.3.3,1.5.9,3.6,1.4,4.7.9,2.5,6.9,23.6,7.6,26.7,1.2,6.3,1.7,12.2,1.9,21.8.1,10.9-.6,15.8-2.7,17.5-2.3,1.8-5.7,7.2-6.4,10.1-.4,1.6-2.6,4.5-4.8,6.6-4.6,4.1-4.2,5.9,1.3,6,3,.1,3.2.3,2.5,3.2-1.2,6-4.6,11.4-8.3,13.3-4.5,2.3-10.1,7.2-10.1,8.9s2.1,2.3,4.7,1.3c2.8-1,3.1-.5,3.1,5.8.1,4.9-.2,5.5-3.4,7.9-3.2,2.5-4.5,2.6-8.5,1s-2.7.4-4.7,2.4c-2.9,2.7-3.2,3.5-3.1,8.5.1,3.1-.1,5.8-.3,6.1-.3.2-2.9.6-5.7.8-6.6.4-9.7,2.9-8.2,6.8.8,2.1.6,2.9-.7,4.1-2.2,1.8-8.1,4.8-10.8,5.3-4.5.9-9.3,3.5-16.5,9.1-4.1,3.1-7.6,6.1-7.7,6.5-.4,1-16.8,11.8-17.9,11.8s-1.4.6-2.2,1.4c-5.7,4.9-32.1,16.5-41.1,18.1-1.9.3-4.8.8-6.5,1.1-7.4,1.4-13.5,2-16.1,1.7-3.4-.4-8.4-2.3-8.5-3.2-.3-2.8-1.1-4.7-3.2-8.4q-4.6-7.7-12.7-8.3c-9.5-.7-10-.8-10-3.6s-2.5-4.5-7.4-6c-3.2-.9-4.4-1.2-13.3-2.8-5.2-.9-12.7-4.9-15-7.9-2.5-3.3,3-4.7,8.7-2.4,8.1,3.3,9.2,2.2,3.3-3.4-5.6-5.1-10-6.8-13.7-5.2-3.4,1.6-13.2-2.5-15.6-6.3-2.2-3.6-1.7-5.3,2.7-9.4,3.6-3.4,4-4.6,2-6.2-.9-.8-2-.8-3.8.2-6.8,3.5-9.9,2.5-7.9-2.5,1.3-3.1,1.3-3.3-2-6.1-1.9-1.5-3.8-2.8-4.3-2.8-3.4,0-6.3-7.5-6.6-17.4-.2-5.8-.9-9-2.4-12-2.2-4.1-2.6-10-1.8-26.1.2-2.8,0-9-.5-13.8-.6-8.3-.6-8.9,1.6-11.2,1.3-1.4,2.7-2.5,3.2-2.5s2.2-1,3.8-2.1c2.6-2,3-2,4.4-.6s1.6,2,1.6,2.5,1.1,1.4,2.5,2c2,.9,2.7.8,3.7-.5,3-3.8,9.4-9.7,18.3-16.8,7.4-5.8,10.7-9.3,14.2-14.8,2.5-4,4.9-7.6,5.3-8,.4-.5,2.5,0,4.6,1,2.2,1.1,4.6,1.9,5.4,1.8,4-.3,4.7,1.2,4.5,8.7-.3,6.9-1.3,15.7-2,16.8-.2.3-.6,2.2-.9,4.3s-1.3,5.2-2.2,6.9c-1.1,2.1-1.4,4.1-.9,6.7.4,2,.9,5.7,1,8.2.1,2.6.9,6,1.7,7.7,1.3,2.6,1.3,3.4.1,6.3-1.6,3.8-.8,6.5,3.7,13.4,1.4,2.2,2.7,5.3,2.9,7,.4,3.9,2.3,5.9,5,5,1.1-.3,2.1-1,2.1-1.5,0-2.2,3.3-4,6.3-3.4,8.1,1.4,5.1,5.4-7.5,10.3-2.4.9-2.8,1.6-2.8,4.9s-.7,4.5-2.5,6.2c-1.9,1.8-2.2,2.7-1.4,4.1.9,1.8,7.6,4.2,10.2,3.8,1.9-.4,7.2,1,13.7,3.7,6,2.4,14.2,3.6,17,2.4.8-.4,3-1.4,4.9-2.4,3.3-1.6,3.5-1.6,8.9,1,3,1.5,7.4,2.8,9.8,2.9,3.9.1,6.6,1.5,14,7,.8.6,2.2.4,4.1-.5,4.7-2.5,6.4-4.3,9.3-10,3.5-6.8,5.7-8.9,10.4-9.7,2.7-.4,4-.2,4.9,1,1.8,2.3,7.7,3.6,10.5,2.4,2.1-1,2.2-1.5,1.7-6-.8-5.7.4-7.4,6.5-10.2,2.2-1,4-2.2,4-2.7s.5-.8,1.1-.8,3.2-1.6,5.6-3.6l4.3-3.6-4.5-4.3c-5.4-5-5.3-5.2,2.4-17.2l4.8-7.5-2.8-9.2c-3.7-11.6-4.2-15.3-2.4-18s1.7-4.1,1.9-6.4c.4-4.3.3-4.5-5.2-7.8-.7-.4-1.4-5.6-1.7-13.4l-.3-8.5-6.3-5.3c-12.4-10.4-26-18.5-37.3-22.3-6.3-2.2-8.4-3.3-16.3-9.2-2.8-2.1-6.4-4-8-4.3-6.6-1.2-13.6-4.5-13-6.3s-1.5-3.7-3.6-7.4c-3.4-6.1-4.2-10-2-9.6,4.3.7,5.7-3.9,6.8-21.7.3-4,.5-7.7.6-8.1.5-2.8-.6-4.4-4-6.4-2.3-1.3-3.7-2.7-3.4-3.5.2-.7,3.5-2.7,7.3-4.5,6.3-2.9,7.9-4.5,9.4-9.2.5-1.6,1.3-1.7,5.3-1.2,2.7.3,5.6.6,6.5.6ZM446.5,455.3c9,4.4,13.3,9.5,11.1,13.1-.9,1.3-.7,1.9.7,2.7,1,.6,3.3,2.3,5,3.8,1.8,1.5,5.5,3.6,8.2,4.7,2.8,1,5.6,2.4,6.3,3.1.8.7,2.2,1.8,3.2,2.3s2.9,3.3,4.3,6c2.4,4.8,2.5,5.4,1.1,9.2-1.8,5.1-1.8,8.5,0,13.6,1.3,3.7,1.3,4.9-.9,13.4-1.2,5.2-2.1,10.7-1.8,12.3,1.4,9,.9,10.6-4.4,12.6-1.7.6-2.4,1.6-2.3,3.2.4,4,0,4.6-3.7,7.2-2.1,1.4-3.8,3.1-3.8,3.8-.1,1.6-6.5,1.3-7.6-.4-1-1.7-3.3-1.9-7.2-.8-6.4,1.9-14.5,1.2-20.3-1.6-3-1.5-5.4-3.1-5.4-3.6s-1.1-1.4-2.5-1.9c-3-1.2-4.8-5.1-4.6-10.4.1-5.6-2.3-9-6-8.2-3.2.6-4.5-.7-4.1-4.4s-1.5-8-3.5-8c-2.9-.1-4.9-2.3-4.8-5.1.3-4.2,1-4.5,9-4.2,7,.2,7.9,0,10.2-2.3s2.4-3.3,2.2-6.2c-.2-3.5-1.5-7.1-2.8-8.2-1.7-1.4-3.9-4.8-4.5-6.8-.6-1.8-.3-2.2,1.2-2.2s2.2.6,2.5,1.4c.3.9,1.5,1.2,3.1.9,2.1-.4,2.6-1.1,2.6-3.7s-1.1-5-2.4-7.2c-2.4-4.2-2.1-6.9.6-6.9s1.2-1.9,1-7.2c-.2-6.1.1-7.7,2-10.7,1.3-1.9,3.2-4,4.3-4.5,3-1.5,9.5-1,14,1.2Z"/>
        <path class="cls-1" d="M152.5,293c-1.9,3.6-5.4,5.8-11.6,7.1-7.2,1.6-11.1,6.7-6.8,9,1.2.6,1.9,2,1.8,3.7,0,2.9,1,11.3,1.6,12.2.8,1.3-1.4,2.9-10.5,7.3-10,4.9-16,9.6-16,12.6s-1.3,3.8-3,6.4c-1.6,2.6-3,5.2-3,5.6s2.1,2.7,4.6,5c4.8,4.2,11.6,6.8,20.9,8q5,.6,9.8-4.3c4.7-4.9,5.6-6.6,3.6-6.6s-.6-.8.4-2.3c1.3-1.9,2.3-2.2,8.8-2.2s7.7-.2,12.7-3.9c3.9-2.8,5.2-4.4,5-5.9-.2-1.2.9-3.3,2.6-5.1,1.5-1.7,3.2-4,3.7-5.1,1-2.3,1.7-3.4,7.8-13,2.5-3.9,5.8-8.1,7.5-9.5,5.9-4.8,7.6-6.9,7-8.4-.9-2.3-3.9-2.9-8.1-1.6-2.1.6-5.9,1.3-8.4,1.6-3.9.5-5,.1-7.6-2-1.7-1.5-4.4-2.6-5.9-2.6-4,0-5.6-1.3-6.8-5.2-1-2.9-1.5-3.3-4.9-3.4-3.2-.1-4,.3-5.2,2.6Z"/>
      </g>
    </g>
  </g>
</svg>